HIERARCHY
ROOT root
{
	OFFSET 0.00 0.00 0.00
	CHANNELS 6 Xposition Yposition Zposition Zrotation Xrotation Yrotation
	JOINT lowerback
	{
		OFFSET 0 0 0
		CHANNELS 6 Xposition Yposition Zposition Zrotation Xrotation Yrotation
		JOINT upperback
		{
			OFFSET -0.214371 12.3768 -1.12219
			CHANNELS 6 Xposition Yposition Zposition Zrotation Xrotation Yrotation
			JOINT thorax
			{
				OFFSET -0.00137213 12.3873 0.296195
				CHANNELS 6 Xposition Yposition Zposition Zrotation Xrotation Yrotation
				JOINT lowerneck
				{
					OFFSET 0.0883157 12.5016 0.82912
					CHANNELS 6 Xposition Yposition Zposition Zrotation Xrotation Yrotation
					JOINT upperneck
					{
						OFFSET -1 10.1794 0.943522
						CHANNELS 6 Xposition Yposition Zposition Zrotation Xrotation Yrotation
						JOINT head
						{
							OFFSET 0.667525 10.2797 -1.57149
							CHANNELS 6 Xposition Yposition Zposition Zrotation Xrotation Yrotation
							End Site
							{
								OFFSET 0 0 0
							}
						}
					}
				}
				JOINT lclavicle
				{
					OFFSET 0.0883157 12.5016 0.82912
					CHANNELS 6 Xposition Yposition Zposition Zrotation Xrotation Yrotation
					JOINT lhumerus
					{
						OFFSET 20.61 4.45006 1.43784
						CHANNELS 6 Xposition Yposition Zposition Zrotation Xrotation Yrotation
						JOINT lradius
						{
							OFFSET 0 -30.3438 0
							CHANNELS 6 Xposition Yposition Zposition Zrotation Xrotation Yrotation
							JOINT lwrist
							{
								OFFSET 0 -18.964 0
								CHANNELS 6 Xposition Yposition Zposition Zrotation Xrotation Yrotation
								JOINT lhand
								{
									OFFSET 0 -9.48199 0
									CHANNELS 6 Xposition Yposition Zposition Zrotation Xrotation Yrotation
									JOINT lfingers
									{
										OFFSET 0 -3.17138 0
										CHANNELS 6 Xposition Yposition Zposition Zrotation Xrotation Yrotation
										End Site
										{
											OFFSET 0 -2.55685 0
										}
									}
								}
								JOINT lthumb
								{
									OFFSET 0 -9.48199 0
									CHANNELS 6 Xposition Yposition Zposition Zrotation Xrotation Yrotation
									End Site
									{
										OFFSET 0 -3.67114 0
									}
								}
							}
						}
					}
				}
				JOINT rclavicle
				{
					OFFSET 0.0883157 12.5016 0.82912
					CHANNELS 6 Xposition Yposition Zposition Zrotation Xrotation Yrotation
					JOINT rhumerus
					{
						OFFSET -20.61 4.45 1.44
						CHANNELS 6 Xposition Yposition Zposition Zrotation Xrotation Yrotation
						JOINT rradius
						{
							OFFSET 0 -29.5102 0
							CHANNELS 6 Xposition Yposition Zposition Zrotation Xrotation Yrotation
							JOINT rwrist
							{
								OFFSET 0 -19.2342 0
								CHANNELS 6 Xposition Yposition Zposition Zrotation Xrotation Yrotation
								JOINT rhand
								{
									OFFSET 0 -9.61712 0
									CHANNELS 6 Xposition Yposition Zposition Zrotation Xrotation Yrotation
									JOINT rfingers
									{
										OFFSET 0 -3.29215 0
										CHANNELS 6 Xposition Yposition Zposition Zrotation Xrotation Yrotation
										End Site
										{
											OFFSET 0 -2.557 0
										}
									}
								}
								JOINT rthumb
								{
									OFFSET 0 -9.61712 0
									CHANNELS 6 Xposition Yposition Zposition Zrotation Xrotation Yrotation
									End Site
									{
										OFFSET 0 -3.671 0
									}
								}
							}
						}
					}
				}
			}
		}
	}
	JOINT rfemur
	{
		OFFSET -8.46272 -9.62775 4.76248
		CHANNELS 6 Xposition Yposition Zposition Zrotation Xrotation Yrotation
		JOINT rtibia
		{
			OFFSET 1.00552e-005 -38.0331 0
			CHANNELS 6 Xposition Yposition Zposition Zrotation Xrotation Yrotation
			JOINT rfoot
			{
				OFFSET 1.14428e-005 -43.2815 0
				CHANNELS 6 Xposition Yposition Zposition Zrotation Xrotation Yrotation
				JOINT rtoes
				{
					OFFSET 0 -14.1868 -3.08763
					CHANNELS 6 Xposition Yposition Zposition Zrotation Xrotation Yrotation
					End Site
					{
						OFFSET 0 -7.27332 0
					}
				}
			}
		}
	}
	JOINT lfemur
	{
		OFFSET 9.10607 -9.62778 4.76249
		CHANNELS 6 Xposition Yposition Zposition Zrotation Xrotation Yrotation
		JOINT ltibia
		{
			OFFSET -1.01399e-005 -38.3535 0
			CHANNELS 6 Xposition Yposition Zposition Zrotation Xrotation Yrotation
			JOINT lfoot
			{
				OFFSET -1.12937e-005 -42.7176 0
				CHANNELS 6 Xposition Yposition Zposition Zrotation Xrotation Yrotation
				JOINT ltoes
				{
					OFFSET 0 -13.9965 -2.83857
					CHANNELS 6 Xposition Yposition Zposition Zrotation Xrotation Yrotation
					End Site
					{
						OFFSET 0 -7.16348 0
					}
				}
			}
		}
	}
}
MOTION
Frames: 5
Frame Time: 0.00833333
-0.596064	93.9306	73.8597	-1.97415	15.7069	-0.369678	0 0 0 1.61324	26.4963	-1.51011	-0.214371 12.3768 -1.12219 0.255572	3.85824	-2.1057	-0.00137213 12.3873 0.296195 0.132712	-10.4423	-1.27702	0.0883157 12.5016 0.82912 1.35369	12.6419	0.780427	-1 10.1794 0.943522 1.86125	-18.9558	1.41094	0.667525 10.2797 -1.57149 0.122411	-7.94687	0.22669	0.0883157 12.5016 0.82912 -15	0	-0	20.61 4.45006 1.43784 17.09	25.5865	172.195	0 -30.3438 0 -0	74.4917	-0	0 -18.964 0 -0	0	-84.9914	0 -9.48199 0 1.22245	4.37968	-2.58917e-014	0 -3.17138 0 -0	7.12502	-0	0 -9.48199 0 25	15	-1.36605e-015	0.0883157 12.5016 0.82912 15	0	-0	-20.61 4.45 1.44 -13.8769	18.6547	-178.676	0 -29.5102 0 -0	68.9564	-0	0 -19.2342 0 5.75342e-016	-2.78262e-015	113.364	0 -9.61712 0 1.22	4.38	-0	0 -3.29215 0 -0	7.12502	-0	0 -9.61712 0 25	15	-7.97034e-015	-8.46272 -9.62775 4.76248 4.69643	-47.4359	-5.58193	1.00552e-005 -38.0331 0 -0	83.6845	-0	1.14428e-005 -43.2815 0 -15.1655	-52.9804	-18.7506	0 -14.1868 -3.08763 -0	-21.6081	-0	9.10607 -9.62778 4.76249 -0.815138	-46.6347	5.16554	-1.01399e-005 -38.3535 0 -0	30.3687	-0	-1.12937e-005 -42.7176 0 -7.37142	-71.1794	-7.78279	0 -13.9965 -2.83857 -0	-39.7702	-0
-0.628356	93.9351	74.625	-1.47345	15.863	-0.310455	0 0 0 1.19281	26.7724	-1.55943	-0.214371 12.3768 -1.12219 0.181749	3.63921	-2.261	-0.00137213 12.3873 0.296195 0.353699	-10.8296	-1.32765	0.0883157 12.5016 0.82912 1.3049	11.3172	0.794324	-1 10.1794 0.943522 1.71955	-18.4805	1.33517	0.667525 10.2797 -1.57149 0.106397	-7.56894	0.213502	0.0883157 12.5016 0.82912 -15	0	-0	20.61 4.45006 1.43784 17.5087	26.1128	171.642	0 -30.3438 0 -0	74.4848	-0	0 -18.964 0 -0	0	-85.1048	0 -9.48199 0 1.22245	4.37968	-2.58917e-014	0 -3.17138 0 -0	7.12502	-0	0 -9.48199 0 25	15	-1.36605e-015	0.0883157 12.5016 0.82912 15	0	-0	-20.61 4.45 1.44 -14.0397	19.0578	-178.104	0 -29.5102 0 -0	68.9961	-0	0 -19.2342 0 5.60285e-016	-2.74751e-015	113.052	0 -9.61712 0 1.22	4.38	-0	0 -3.29215 0 -0	7.12502	-0	0 -9.61712 0 25	15	-7.97034e-015	-8.46272 -9.62775 4.76248 3.42241	-50.0649	-6.1062	1.00552e-005 -38.0331 0 -0	86.7598	-0	1.14428e-005 -43.2815 0 -14.6772	-51.3069	-18.5501	0 -14.1868 -3.08763 -0	-20.3021	-0	9.10607 -9.62778 4.76249 -1.29262	-46.5395	5.54179	-1.01399e-005 -38.3535 0 -0	30.6843	-0	-1.12937e-005 -42.7176 0 -7.99781	-70.6431	-8.47019	0 -13.9965 -2.83857 -0	-39.0676	-0
-0.644867	93.9216	75.3779	-1.02801	15.9747	-0.242415	0 0 0 0.857261	27.0389	-1.61714	-0.214371 12.3768 -1.12219 0.109366	3.43812	-2.40965	-0.00137213 12.3873 0.296195 0.529029	-11.1919	-1.37756	0.0883157 12.5016 0.82912 1.26218	9.90055	0.804287	-1 10.1794 0.943522 1.59765	-17.8278	1.26006	0.667525 10.2797 -1.57149 0.0974037	-7.12492	0.202561	0.0883157 12.5016 0.82912 -15	0	-0	20.61 4.45006 1.43784 17.9952	26.5301	171.047	0 -30.3438 0 -0	74.3407	-0	0 -18.964 0 -0	0	-85.198	0 -9.48199 0 1.22245	4.37968	-2.58917e-014	0 -3.17138 0 -0	7.12502	-0	0 -9.48199 0 25	15	-1.36605e-015	0.0883157 12.5016 0.82912 15	0	-0	-20.61 4.45 1.44 -14.2369	19.3319	-177.475	0 -29.5102 0 -0	68.8742	-0	0 -19.2342 0 5.45136e-016	-2.71163e-015	112.734	0 -9.61712 0 1.22	4.38	-0	0 -3.29215 0 -0	7.12502	-0	0 -9.61712 0 25	15	-7.97034e-015	-8.46272 -9.62775 4.76248 2.25326	-52.6324	-6.53921	1.00552e-005 -38.0331 0 -0	89.6511	-0	1.14428e-005 -43.2815 0 -14.4244	-50.1494	-18.522	0 -14.1868 -3.08763 -0	-19.4247	-0	9.10607 -9.62778 4.76249 -1.72177	-46.4365	5.88575	-1.01399e-005 -38.3535 0 -0	31.0735	-0	-1.12937e-005 -42.7176 0 -8.29608	-70.1915	-8.80983	0 -13.9965 -2.83857 -0	-38.4134	-0
-0.640222	93.8911	76.1246	-0.637875	16.0397	-0.16525	0 0 0 0.608699	27.2898	-1.68337	-0.214371 12.3768 -1.12219 0.0374957	3.25986	-2.55141	-0.00137213 12.3873 0.296195 0.655765	-11.521	-1.42709	0.0883157 12.5016 0.82912 1.22999	8.39526	0.810733	-1 10.1794 0.943522 1.49618	-16.99	1.18769	0.667525 10.2797 -1.57149 0.0942449	-6.61358	0.194781	0.0883157 12.5016 0.82912 -15	0	-0	20.61 4.45006 1.43784 18.5375	26.8309	170.409	0 -30.3438 0 -0	74.0609	-0	0 -18.964 0 -0	0	-85.262	0 -9.48199 0 1.22245	4.37968	-2.58917e-014	0 -3.17138 0 -0	7.12502	-0	0 -9.48199 0 25	15	-1.36605e-015	0.0883157 12.5016 0.82912 15	0	-0	-20.61 4.45 1.44 -14.4614	19.4729	-176.802	0 -29.5102 0 -0	68.5978	-0	0 -19.2342 0 5.30279e-016	-2.6759e-015	112.418	0 -9.61712 0 1.22	4.38	-0	0 -3.29215 0 -0	7.12502	-0	0 -9.61712 0 25	15	-7.97034e-015	-8.46272 -9.62775 4.76248 1.19328	-55.117	-6.88913	1.00552e-005 -38.0331 0 -180	87.665	180	1.14428e-005 -43.2815 0 -14.3831	-49.5159	-18.6318	0 -14.1868 -3.08763 -0	-19.0078	-0	9.10607 -9.62778 4.76249 -2.11335	-46.3116	6.1743	-1.01399e-005 -38.3535 0 -0	31.5307	-0	-1.12937e-005 -42.7176 0 -8.31547	-69.8354	-8.85005	0 -13.9965 -2.83857 -0	-37.8043	-0
-0.620019	93.8499	76.8733	-0.298983	16.0584	-0.0769851	0 0 0 0.443115	27.52	-1.75804	-0.214371 12.3768 -1.12219 -0.0344652	3.10699	-2.68696	-0.00137213 12.3873 0.296195 0.735067	-11.8116	-1.47678	0.0883157 12.5016 0.82912 1.21204	6.80937	0.814162	-1 10.1794 0.943522 1.41409	-15.9698	1.11955	0.667525 10.2797 -1.57149 0.0953351	-6.03708	0.190719	0.0883157 12.5016 0.82912 -15	0	-0	20.61 4.45006 1.43784 19.1233	27.012	169.729	0 -30.3438 0 -0	73.6496	-0	0 -18.964 0 -0	0	-85.2902	0 -9.48199 0 1.22245	4.37968	-2.58917e-014	0 -3.17138 0 -0	7.12502	-0	0 -9.48199 0 25	15	-1.36605e-015	0.0883157 12.5016 0.82912 15	0	-0	-20.61 4.45 1.44 -14.706	19.4839	-176.098	0 -29.5102 0 -0	68.1793	-0	0 -19.2342 0 5.16172e-016	-2.64144e-015	112.114	0 -9.61712 0 1.22	4.38	-0	0 -3.29215 0 -0	7.12502	-0	0 -9.61712 0 25	15	-7.97034e-015	-8.46272 -9.62775 4.76248 0.234002	-57.5019	-7.17124	1.00552e-005 -38.0331 0 -180	85.2076	180	1.14428e-005 -43.2815 0 -14.5381	-49.3848	-18.861	0 -14.1868 -3.08763 -0	-19.044	-0	9.10607 -9.62778 4.76249 -2.48205	-46.1536	6.38737	-1.01399e-005 -38.3535 0 -0	32.0465	-0	-1.12937e-005 -42.7176 0 -8.10585	-69.5786	-8.64145	0 -13.9965 -2.83857 -0	-37.2336	-0
